<svg width="73" height="59" viewBox="0 0 73 59" fill="none" xmlns="http://www.w3.org/2000/svg">
<path d="M18.25 44.1367C19.2842 44.1367 20.1516 43.7887 20.8524 43.0927C21.5532 42.3967 21.9024 41.5364 21.9 40.5117C21.8976 39.487 21.5472 38.6267 20.8488 37.9307C20.1504 37.2347 19.2842 36.8867 18.25 36.8867C17.2158 36.8867 16.3496 37.2347 15.6512 37.9307C14.9528 38.6267 14.6024 39.487 14.6 40.5117C14.5976 41.5364 14.948 42.3979 15.6512 43.0963C16.3544 43.7948 17.2207 44.1415 18.25 44.1367ZM14.6 33.2617H21.9V15.1367H14.6V33.2617ZM29.2 40.5117H58.4V33.2617H29.2V40.5117ZM29.2 26.0117H58.4V18.7617H29.2V26.0117ZM7.3 58.6367C5.2925 58.6367 3.57457 57.9274 2.1462 56.5088C0.717833 55.0903 0.00243333 53.3829 0 51.3867V7.88672C0 5.89297 0.7154 4.1868 2.1462 2.76822C3.577 1.34963 5.29493 0.639135 7.3 0.636719H65.7C67.7075 0.636719 69.4266 1.34722 70.8574 2.76822C72.2882 4.18922 73.0024 5.89538 73 7.88672V51.3867C73 53.3805 72.2858 55.0878 70.8574 56.5088C69.4291 57.9298 67.7099 58.6391 65.7 58.6367H7.3Z" fill="white"/>
</svg>
